<svg width="69" height="69" viewBox="0 0 69 69" fill="none" xmlns="http://www.w3.org/2000/svg">
<g clip-path="url(#clip0)">
<path fill-rule="evenodd" clip-rule="evenodd" d="M1.34442 42.493C1.34442 28.7333 12.4989 17.5788 26.2586 17.5788C40.0184 17.5788 51.1729 28.7333 51.1729 42.493C51.1729 56.2528 40.0184 67.4072 26.2586 67.4072C12.4989 67.4072 1.34442 56.2528 1.34442 42.493Z" fill="#00ADEE"/>
<path fill-rule="evenodd" clip-rule="evenodd" d="M35.6083 65.5918L26.2807 59.885V51.242L34.0683 45.5839L43.1562 47.6238L44.9668 58.9414L35.6083 65.5918Z" fill="white"/>
<path fill-rule="evenodd" clip-rule="evenodd" d="M51.0117 39.6985L43.1549 47.624L34.0671 45.5842L31.0925 36.4286L36.7091 27.7856L47.7586 29.9068L51.0117 39.6985Z" fill="white"/>
<path fill-rule="evenodd" clip-rule="evenodd" d="M17.794 65.9331L26.2319 59.8854V51.2423L18.4438 45.5843L9.356 47.6242L7.98333 59.4269L17.794 65.9331Z" fill="white"/>
<path fill-rule="evenodd" clip-rule="evenodd" d="M1.51488 39.5711L9.35699 47.624L18.4448 45.5842L21.4199 36.4286L15.8034 27.7856L4.78212 29.8559L1.51488 39.5711Z" fill="white"/>
<path fill-rule="evenodd" clip-rule="evenodd" d="M21.4185 18.0505L15.803 27.7861L21.4195 36.4292H31.0949L36.7114 27.7861L31.0949 18.0505H21.4185Z" fill="white"/>
<path d="M3.55049 29.3244C1.78705 32.3545 0.612648 35.7671 0.184639 39.4052C0.183065 39.4167 0.182016 39.4282 0.180443 39.4398C0.0639993 40.4416 0.00210571 41.4602 0.00210571 42.493C0.00210571 49.3128 2.61632 55.5331 6.89431 60.2061C6.9625 60.3015 7.04275 60.3886 7.13402 60.4636C9.91293 63.4193 13.3664 65.734 17.2473 67.1565C17.3171 67.188 17.3894 67.2142 17.4634 67.2331C20.2145 68.2139 23.1749 68.75 26.2591 68.75C29.6989 68.75 32.9861 68.0839 35.9994 66.8759C36.0813 66.8512 36.16 66.8187 36.236 66.7789C39.9412 65.2514 43.2226 62.8995 45.8515 59.9533C45.9375 59.8772 46.0141 59.7917 46.0786 59.6973C50.0865 55.0857 52.5161 49.0679 52.5161 42.493C52.5161 41.5074 52.4594 40.5344 52.353 39.5767C52.3519 39.5646 52.3503 39.5531 52.3488 39.5415C52.1536 37.8033 51.788 36.1164 51.2693 34.4972L65.3742 20.3923C65.8987 19.8678 65.8987 19.0176 65.3742 18.493C65.1119 18.2308 64.7684 18.0996 64.4248 18.0996C64.0812 18.0996 63.7377 18.2308 63.4754 18.493L50.2166 31.7513C49.8473 30.9315 49.4371 30.1332 48.9887 29.3606C48.9478 29.2683 48.8958 29.1817 48.8355 29.1015C45.5069 23.5116 40.1631 19.2567 33.8132 17.3454L43.2725 7.8867C43.7964 7.36217 43.7964 6.51192 43.2725 5.9874C43.0102 5.72514 42.6661 5.59402 42.3225 5.59402C41.979 5.59402 41.6354 5.72514 41.3732 5.9874L30.7406 16.6205C29.2835 16.3687 27.7865 16.236 26.2591 16.236C16.6945 16.236 8.30894 21.3779 3.71834 29.0417C3.6512 29.1287 3.59455 29.2232 3.55049 29.3244ZM15.1686 29.2714L19.946 36.6231L17.4057 44.4411L11.368 45.797L9.79701 46.1494L2.93261 39.1004C3.3496 36.2197 4.28954 33.5059 5.6533 31.0585L15.1686 29.2714ZM32.5717 36.6231L37.3469 29.2751L46.8916 31.1067C48.2591 33.5746 49.1959 36.3126 49.6018 39.2184L42.7285 46.1515L35.112 44.4411L33.4193 39.231L32.5717 36.6231ZM45.8038 55.6559L44.5927 48.0855L49.8263 42.8061C49.7639 47.5578 48.2905 51.9753 45.8038 55.6559ZM30.1211 37.7713L32.493 45.071L26.2837 49.5819L20.0745 45.0705L22.4464 37.7713H30.1211ZM2.69028 42.7007L7.95122 48.1033L7.02125 56.0991C4.33046 52.3052 2.73381 47.6852 2.69028 42.7007ZM9.39365 58.9425L10.5822 48.7254L13.4713 48.0771L18.1484 47.027L24.8917 51.926V59.1953L17.604 64.4185C14.4878 63.1838 11.6968 61.3029 9.39365 58.9425ZM20.8072 65.4266L26.3157 61.4786L32.4568 65.2357C30.481 65.7749 28.4033 66.0645 26.2591 66.0645C24.3829 66.0645 22.5576 65.8431 20.8072 65.4266ZM35.7157 64.0818L27.6265 59.1324V51.926L32.3829 48.4704L34.3692 47.027L41.9769 48.7348L43.54 58.5051C41.3553 60.8612 38.6965 62.771 35.7157 64.0818ZM44.8151 27.9737L37.5699 26.5827L33.8799 20.1867C38.2392 21.68 42.0262 24.4175 44.8151 27.9737ZM30.2449 19.2604L35.1392 27.744L30.3682 35.0857H22.15L17.379 27.744L22.2722 19.2609C23.5688 19.0391 24.9006 18.9221 26.2591 18.9221C27.6176 18.9216 28.9488 19.0385 30.2449 19.2604ZM18.6378 20.1867L14.9499 26.5801L7.7325 27.936C10.5182 24.3981 14.2937 21.6748 18.6378 20.1867Z" fill="#334382"/>
<path d="M50.257 20.3931L68.3566 2.29296C68.8811 1.76844 68.8811 0.918196 68.3566 0.393675C68.0943 0.131939 67.7508 0.000808716 67.4072 0.000808716C67.0637 0.000808716 66.7201 0.131939 66.4578 0.394199L48.3577 18.4938C47.8337 19.0184 47.8337 19.8686 48.3577 20.3931C48.8822 20.9171 49.7324 20.9171 50.257 20.3931Z" fill="#334382"/>
<path d="M46.4409 4.16113C46.7939 4.16113 47.1401 4.01741 47.3898 3.76774C47.6394 3.51807 47.7837 3.17189 47.7837 2.81731C47.7837 2.46431 47.64 2.11917 47.3898 1.86897C47.1401 1.61773 46.7939 1.47453 46.4409 1.47453C46.0874 1.47453 45.7412 1.61773 45.4915 1.86897C45.2419 2.11865 45.0981 2.46431 45.0981 2.81731C45.0981 3.17189 45.2413 3.51807 45.4915 3.76774C45.7412 4.01741 46.0874 4.16113 46.4409 4.16113Z" fill="#334382"/>
</g>
<defs>
<clipPath id="clip0">
<rect width="68.75" height="68.75" fill="white" transform="translate(68.75 68.75) rotate(-180)"/>
</clipPath>
</defs>
</svg>
